#!OML:ASF F:\VICON\USERDATA\INSTALL\rory3\rory3.ASF
:FULLY-SPECIFIED
:DEGREES
1312
root 4.29557 18.4022 4.91363 -176.754 -24.2918 176.438
lowerback 9.09817 2.80629 0.976119
upperback 0.989496 3.7816 0.343594
thorax -4.02517 1.83272 -0.656814
lowerneck -20.7362 -3.18115 -9.89382
upperneck 32.2184 -3.91334 4.37747
head 14.9823 -2.73123 2.67107
rclavicle 1.95803e-014 3.97569e-015
rhumerus 17.6441 5.33442 -73.7812
rradius 40.198
rwrist 52.8036
rhand -38.961 0.391055
rfingers 7.12502
rthumb -11.9661 -29.2469
lclavicle 1.95803e-014 3.97569e-015
lhumerus -20.445 -4.1426 89.312
lradius 46.344
lwrist -23.372
lhand -20.9904 21.3452
lfingers 7.12502
lthumb 5.38359 51.2568
rfemur 2.2149 0.0433534 21.1507
rtibia 3.93764
rfoot -1.80717 1.5177
rtoes 17.5419
lfemur -58.6109 5.20413 -17.9131
ltibia 93.2522
lfoot -13.8001 -14.3381
ltoes -23.3898
1313
root 4.28575 18.3932 4.95528 -176.594 -24.5461 176.429
lowerback 8.81045 2.74566 1.16639
upperback 0.88061 3.72282 0.307447
thorax -3.96431 1.8039 -0.78128
lowerneck -20.5746 -3.20214 -9.91753
upperneck 32.2303 -3.99577 4.44943
head 14.9613 -2.76575 2.69007
rclavicle 6.47044e-014 -1.98785e-014
rhumerus 17.8164 5.24667 -73.6775
rradius 39.9091
rwrist 52.2991
rhand -38.2335 1.10574
rfingers 7.12502
rthumb -11.2645 -28.5718
lclavicle 6.47044e-014 -1.98785e-014
lhumerus -21.3191 -3.32685 88.9689
lradius 44.762
lwrist -22.8154
lhand -21.9213 22.8637
lfingers 7.12502
lthumb 4.48475 52.7962
rfemur 0.641081 -0.33906 21.0612
rtibia 6.61137
rfoot -2.89188 2.20669
rtoes 17.9477
lfemur -57.7379 4.56611 -17.4967
ltibia 92.7981
lfoot -13.0252 -14.2196
ltoes -23.3177
1314
root 4.28115 18.3844 4.9845 -176.819 -24.538 176.628
lowerback 8.75976 2.77671 1.3116
upperback 0.860013 3.78172 0.392681
thorax -3.95274 1.83154 -0.779027
lowerneck -20.4769 -3.20236 -9.9201
upperneck 32.2695 -4.03379 4.48394
head 14.9616 -2.78387 2.6982
rclavicle -6.4605e-015 -1.11319e-014
rhumerus 17.8682 5.28023 -73.5562
rradius 39.777
rwrist 51.8609
rhand -37.6216 1.417
rfingers 7.12502
rthumb -10.6743 -28.2919
lclavicle -6.4605e-015 -1.11319e-014
lhumerus -22.0649 -2.13753 88.4822
lradius 43.0981
lwrist -22.59
lhand -20.9507 22.1946
lfingers 7.12502
lthumb 5.42191 52.1053
rfemur -0.132788 -0.447625 21.2028
rtibia 8.37507
rfoot -3.50757 2.73112
rtoes 18.4987
lfemur -56.3889 4.26153 -16.7983
ltibia 92.3073
lfoot -12.075 -14.2526
ltoes -22.2824
1315
root 4.27134 18.3783 5.01494 -176.9 -24.4545 176.58
lowerback 8.71716 2.83491 1.2494
upperback 0.814105 3.85752 0.450399
thorax -3.98339 1.87086 -0.692976
lowerneck -20.477 -3.17867 -10.0019
upperneck 32.4033 -3.99881 4.50778
head 15.023 -2.78552 2.72989
rclavicle 6.16232e-014 1.43125e-014
rhumerus 17.7772 5.47194 -73.2867
rradius 39.7876
rwrist 51.3721
rhand -37.4606 1.30701
rfingers 7.12502
rthumb -10.519 -28.4098
lclavicle 6.16232e-014 1.43125e-014
lhumerus -22.749 -0.800338 88.0668
lradius 41.4714
lwrist -22.1178
lhand -19.8349 21.632
lfingers 7.12502
lthumb 6.4992 51.5123
rfemur -0.54025 -0.484181 21.0524
rtibia 9.25744
rfoot -3.72494 3.07503
rtoes 18.6771
lfemur -54.9952 3.91227 -16.4022
ltibia 91.7016
lfoot -11.0974 -14.1305
ltoes -22.1303
1316
root 4.26059 18.3717 5.04794 -177.028 -24.4866 176.54
lowerback 8.65458 2.87599 1.28207
upperback 0.84124 3.91426 0.473589
thorax -3.91869 1.89922 -0.689426
lowerneck -20.4786 -3.21849 -10.0791
upperneck 32.4844 -4.05644 4.54528
head 15.0701 -2.81952 2.74857
rclavicle -5.94366e-014 -3.97569e-015
rhumerus 17.6726 5.55557 -72.9947
rradius 39.9523
rwrist 50.7656
rhand -37.3148 1.33852
rfingers 7.12502
rthumb -10.3784 -28.3854
lclavicle -5.94366e-014 -3.97569e-015
lhumerus -23.3373 0.102033 87.6653
lradius 39.7391
lwrist -21.5365
lhand -19.4601 21.6852
lfingers 7.12502
lthumb 6.86106 51.554
rfemur -0.779373 -0.634032 20.9164
rtibia 9.93142
rfoot -3.95592 3.34393
rtoes 18.906
lfemur -53.604 3.4698 -16.0593
ltibia 91.0333
lfoot -10.2673 -13.7561
ltoes -23.3607
1317
root 4.24917 18.3596 5.08203 -177.25 -24.5061 176.626
lowerback 8.5865 2.93511 1.43326
upperback 0.915924 4.00356 0.510189
thorax -3.79372 1.94191 -0.739511
lowerneck -20.4557 -3.28518 -9.99669
upperneck 32.4933 -4.15932 4.45177
head 15.0748 -2.86643 2.67516
rclavicle 2.09718e-014 3.73715e-014
rhumerus 17.5021 5.76571 -72.5143
rradius 40.4437
rwrist 50.0378
rhand -37.0594 1.3038
rfingers 7.12502
rthumb -10.1319 -28.4323
lclavicle 2.09718e-014 3.73715e-014
lhumerus -23.8185 0.880819 87.2737
lradius 38.0068
lwrist -20.601
lhand -18.9809 22.5
lfingers 7.12502
lthumb 7.32362 52.3533
rfemur -0.937146 -0.765683 20.9153
rtibia 10.4946
rfoot -4.04822 3.57163
rtoes 19.1712
lfemur -52.1513 3.02719 -15.5736
ltibia 90.3257
lfoot -9.41621 -13.3181
ltoes -24.011
1318
root 4.23341 18.35 5.11285 -177.607 -24.4911 176.65
lowerback 8.74968 2.96688 1.55594
upperback 0.983029 4.05587 0.53231
thorax -3.80692 1.96413 -0.797816
lowerneck -20.5264 -3.29453 -9.8525
upperneck 32.5994 -4.17418 4.29077
head 15.1333 -2.88179 2.57957
rclavicle -7.99114e-014 9.54166e-015
rhumerus 17.0709 6.20003 -72.0444
rradius 41.2446
rwrist 49.3967
rhand -37.1489 1.3152
rfingers 7.12502
rthumb -10.2183 -28.4166
lclavicle -7.99114e-014 9.54166e-015
lhumerus -24.3169 1.87268 86.7441
lradius 36.3207
lwrist -19.8872
lhand -18.6222 23.5927
lfingers 7.12502
lthumb 7.66986 53.4336
rfemur -0.979357 -0.767768 20.8353
rtibia 11.1979
rfoot -4.22975 3.7737
rtoes 19.2273
lfemur -50.3752 2.47953 -15.1178
ltibia 89.5498
lfoot -8.61746 -12.9607
ltoes -23.9618
1319
root 4.22087 18.3422 5.13933 -178.166 -24.4653 176.651
lowerback 9.13147 2.99155 1.54454
upperback 1.08285 4.08835 0.610409
thorax -3.92158 1.97588 -0.733187
lowerneck -20.5338 -3.2631 -9.78833
upperneck 32.6942 -4.11456 4.1498
head 15.1683 -2.87507 2.52051
rclavicle -1.88845e-015 -2.46493e-014
rhumerus 16.4609 6.58089 -71.7109
rradius 42.1606
rwrist 48.9314
rhand -37.8129 1.55847
rfingers 7.12502
rthumb -10.8588 -28.1408
lclavicle -1.88845e-015 -2.46493e-014
lhumerus -24.8599 3.17705 86.0855
lradius 34.5189
lwrist -20.1855
lhand -18.5628 23.6481
lfingers 7.12502
lthumb 7.72717 53.4869
rfemur -0.658589 -0.591732 20.7495
rtibia 11.741
rfoot -4.50747 3.86493
rtoes 19.1954
lfemur -48.3023 1.96391 -14.7017
ltibia 88.6826
lfoot -8.02952 -12.7248
ltoes -23.8638
1320
root 4.20417 18.326 5.18327 -177.986 -24.3649 176.721
lowerback 8.84997 3.05323 1.67829
upperback 1.00832 4.18588 0.65818
thorax -3.83437 2.02561 -0.755948
lowerneck -20.5874 -3.26437 -9.85744
upperneck 32.6681 -4.087 4.19053
head 15.169 -2.86219 2.55485
rclavicle 1.09332e-014 -1.74931e-014
rhumerus 15.8471 6.71688 -71.517
rradius 43.2393
rwrist 48.3048
rhand -38.627 2.17681
rfingers 7.12502
rthumb -11.644 -27.4797
lclavicle 1.09332e-014 -1.74931e-014
lhumerus -25.1552 4.64989 85.4258
lradius 32.7131
lwrist -20.8191
lhand -17.8269 23.6012
lfingers 7.12502
lthumb 8.43736 53.4127
rfemur -1.40189 -0.508158 20.6809
rtibia 12.5103
rfoot -4.65832 4.11705
rtoes 19.0261
lfemur -47.3398 1.55404 -14.33
ltibia 87.8593
lfoot -7.33413 -12.5269
ltoes -23.8081
1321
root 4.19554 18.3188 5.21072 -178.603 -24.4704 176.748
lowerback 9.28026 3.05963 1.62957
upperback 1.18986 4.18759 0.780816
thorax -3.89775 2.02181 -0.62129
lowerneck -20.6177 -3.30099 -9.96116
upperneck 32.573 -4.07898 4.19624
head 15.1349 -2.86279 2.57619
rclavicle 1.35174e-014 3.18055e-015
rhumerus 15.101 6.98285 -71.2886
rradius 44.6455
rwrist 47.0833
rhand -39.0493 2.55691
rfingers 7.12502
rthumb -12.0512 -27.0761
lclavicle 1.35174e-014 3.18055e-015
lhumerus -25.4622 6.39651 84.694
lradius 31.1393
lwrist -21.7837
lhand -16.1761 24.3262
lfingers 7.12502
lthumb 10.0303 54.0672
rfemur -1.09475 -0.358443 20.6393
rtibia 13.2041
rfoot -5.02129 4.14192
rtoes 19.0584
lfemur -45.2555 0.901313 -13.9063
ltibia 86.8529
lfoot -6.80199 -12.5834
ltoes -23.6738
1322
root 4.17277 18.3017 5.24806 -178.184 -24.8256 176.707
lowerback 8.74707 2.94031 1.71294
upperback 1.00881 4.04169 0.796233
thorax -3.78738 1.95481 -0.610175
lowerneck -20.5077 -3.32636 -10.0736
upperneck 32.5307 -4.10182 4.23202
head 15.0971 -2.8831 2.60621
rclavicle 3.54831e-014 -2.22639e-014
rhumerus 14.0444 7.41307 -71.1429
rradius 46.2435
rwrist 45.7084
rhand -39.8197 2.32971
rfingers 7.12502
rthumb -12.794 -27.2583
lclavicle 3.54831e-014 -2.22639e-014
lhumerus -26.0756 8.0298 83.8267
lradius 29.7378
lwrist -22.4147
lhand -14.7886 25.1983
lfingers 7.12502
lthumb 11.3687 54.8702
rfemur -2.09669 -0.527487 20.4641
rtibia 14.2149
rfoot -5.29272 4.28023
rtoes 19.2754
lfemur -44.5555 -0.0453744 -13.6277
ltibia 85.9254
lfoot -5.86907 -12.5743
ltoes -23.238
